# Blender v3.1.2 OBJ File: ''
# www.blender.org
mtllib ring.mtl
o Circle_Circle.002
v 0.000000 0.000000 -6.000000
v -1.170542 0.000000 -5.884711
v -2.296101 0.000000 -5.543277
v -3.333421 0.000000 -4.988818
v -4.242640 0.000000 -4.242640
v -4.988818 0.000000 -3.333421
v -5.543277 0.000000 -2.296101
v -5.884711 0.000000 -1.170542
v -6.000000 0.000000 0.000000
v -5.884711 0.000000 1.170542
v -5.543277 0.000000 2.296100
v -4.988818 0.000000 3.333421
v -4.242640 0.000000 4.242640
v -3.333421 0.000000 4.988818
v -2.296101 0.000000 5.543277
v -1.170542 0.000000 5.884712
v 0.000001 0.000000 6.000000
v 1.170542 0.000000 5.884712
v 2.296101 0.000000 5.543277
v 3.333422 0.000000 4.988817
v 4.242640 0.000000 4.242641
v 4.988817 0.000000 3.333423
v 5.543277 0.000000 2.296102
v 5.884711 0.000000 1.170542
v 6.000000 0.000000 -0.000000
v 5.884711 0.000000 -1.170542
v 5.543277 0.000000 -2.296102
v 4.988818 0.000000 -3.333420
v 4.242641 0.000000 -4.242640
v 3.333422 0.000000 -4.988818
v 2.296101 0.000000 -5.543277
v 1.170541 0.000000 -5.884712
v -1.010846 0.000000 -5.081864
v 0.000000 0.000000 -5.181424
v -1.982845 0.000000 -4.787011
v -2.878645 0.000000 -4.308197
v -3.663820 0.000000 -3.663820
v -4.308197 0.000000 -2.878645
v -4.787011 0.000000 -1.982845
v -5.081864 0.000000 -1.010846
v -5.181424 0.000000 0.000000
v -5.081864 0.000000 1.010846
v -4.787012 0.000000 1.982845
v -4.308197 0.000000 2.878645
v -3.663820 0.000000 3.663820
v -2.878645 0.000000 4.308197
v -1.982846 0.000000 4.787011
v -1.010846 0.000000 5.081864
v 0.000000 0.000000 5.181424
v 1.010845 0.000000 5.081865
v 1.982845 0.000000 4.787011
v 2.878645 0.000000 4.308196
v 3.663820 0.000000 3.663820
v 4.308196 0.000000 2.878646
v 4.787011 0.000000 1.982846
v 5.081864 0.000000 1.010846
v 5.181424 0.000000 -0.000000
v 5.081864 0.000000 -1.010846
v 4.787011 0.000000 -1.982846
v 4.308197 0.000000 -2.878644
v 3.663821 0.000000 -3.663820
v 2.878645 0.000000 -4.308197
v 1.982845 0.000000 -4.787012
v 1.010845 0.000000 -5.081864
v -0.854547 0.000000 -4.296101
v 0.000000 0.000000 -4.380267
v -1.676256 0.000000 -4.046838
v -2.433546 0.000000 -3.642059
v -3.097316 0.000000 -3.097316
v -3.642059 0.000000 -2.433546
v -4.046838 0.000000 -1.676256
v -4.296101 0.000000 -0.854548
v -4.380267 0.000000 0.000000
v -4.296101 0.000000 0.854548
v -4.046839 0.000000 1.676256
v -3.642059 0.000000 2.433545
v -3.097316 0.000000 3.097316
v -2.433546 0.000000 3.642059
v -1.676256 0.000000 4.046838
v -0.854547 0.000000 4.296101
v 0.000001 0.000000 4.380267
v 0.854547 0.000000 4.296102
v 1.676255 0.000000 4.046838
v 2.433546 0.000000 3.642058
v 3.097317 0.000000 3.097317
v 3.642058 0.000000 2.433547
v 4.046838 0.000000 1.676257
v 4.296101 0.000000 0.854548
v 4.380267 0.000000 -0.000000
v 4.296101 0.000000 -0.854548
v 4.046838 0.000000 -1.676256
v 3.642059 0.000000 -2.433545
v 3.097317 0.000000 -3.097317
v 2.433546 0.000000 -3.642059
v 1.676256 0.000000 -4.046839
v 0.854547 0.000000 -4.296101
v 0.854547 0.240608 -4.296101
v 1.676256 0.240608 -4.046839
v 2.433546 0.240608 -3.642059
v 3.097317 0.240608 -3.097317
v 3.642059 0.240608 -2.433545
v 4.046838 0.240608 -1.676256
v 4.296101 0.240608 -0.854548
v 4.380267 0.240608 -0.000000
v 4.296101 0.240608 0.854548
v 4.046838 0.240608 1.676257
v 3.642058 0.240608 2.433547
v 3.097317 0.240608 3.097317
v 2.433546 0.240608 3.642058
v 1.676255 0.240608 4.046838
v 0.854547 0.240608 4.296102
v 0.000001 0.240608 4.380267
v -0.854547 0.240608 4.296101
v -1.676256 0.240608 4.046838
v -2.433546 0.240608 3.642059
v -3.097316 0.240608 3.097316
v -3.642059 0.240608 2.433545
v -4.046839 0.240608 1.676256
v -4.296101 0.240608 0.854548
v -4.380267 0.240608 0.000000
v -4.296101 0.240608 -0.854548
v -4.046838 0.240608 -1.676256
v -3.642059 0.240608 -2.433546
v -3.097316 0.240608 -3.097316
v -2.433546 0.240608 -3.642059
v -1.676256 0.240608 -4.046838
v 0.000000 0.240608 -4.380267
v -0.854547 0.240608 -4.296101
v 1.170541 0.240608 -5.884712
v 2.296101 0.240608 -5.543277
v 3.333422 0.240608 -4.988818
v 4.242641 0.240608 -4.242640
v 4.988818 0.240608 -3.333420
v 5.543277 0.240608 -2.296102
v 5.884711 0.240608 -1.170542
v 6.000000 0.240608 -0.000000
v 5.884711 0.240608 1.170542
v 5.543277 0.240608 2.296102
v 4.988817 0.240608 3.333423
v 4.242640 0.240608 4.242641
v 3.333422 0.240608 4.988817
v 2.296101 0.240608 5.543277
v 1.170542 0.240608 5.884712
v 0.000001 0.240608 6.000000
v -1.170542 0.240608 5.884712
v -2.296101 0.240608 5.543277
v -3.333421 0.240608 4.988818
v -4.242640 0.240608 4.242640
v -4.988818 0.240608 3.333421
v -5.543277 0.240608 2.296100
v -5.884711 0.240608 1.170542
v -6.000000 0.240608 0.000000
v -5.884711 0.240608 -1.170542
v -5.543277 0.240608 -2.296101
v -4.988818 0.240608 -3.333421
v -4.242640 0.240608 -4.242640
v -3.333421 0.240608 -4.988818
v -2.296101 0.240608 -5.543277
v 0.000000 0.240608 -6.000000
v -1.170542 0.240608 -5.884711
v 1.010845 0.240608 -5.081864
v 1.982845 0.240608 -4.787012
v 2.878645 0.240608 -4.308197
v 3.663821 0.240608 -3.663820
v 4.308197 0.240608 -2.878644
v 4.787011 0.240608 -1.982846
v 5.081864 0.240608 -1.010846
v 5.181424 0.240608 -0.000000
v 5.081864 0.240608 1.010846
v 4.787011 0.240608 1.982846
v 4.308196 0.240608 2.878646
v 3.663820 0.240608 3.663820
v 2.878645 0.240608 4.308196
v 1.982845 0.240608 4.787011
v 1.010845 0.240608 5.081865
v 0.000000 0.240608 5.181424
v -1.010846 0.240608 5.081864
v -1.982846 0.240608 4.787011
v -2.878645 0.240608 4.308197
v -3.663820 0.240608 3.663820
v -4.308197 0.240608 2.878645
v -4.787012 0.240608 1.982845
v -5.081864 0.240608 1.010846
v -5.181424 0.240608 0.000000
v -5.081864 0.240608 -1.010846
v -4.787011 0.240608 -1.982845
v -4.308197 0.240608 -2.878645
v -3.663820 0.240608 -3.663820
v -2.878645 0.240608 -4.308197
v -1.982845 0.240608 -4.787011
v 0.000000 0.240608 -5.181424
v -1.010846 0.240608 -5.081864
vt 0.402455 0.990393
vt 0.500000 1.000000
vt 0.500000 0.931785
vt 0.415763 0.923489
vt 0.308658 0.961940
vt 0.334763 0.898918
vt 0.260113 0.859016
vt 0.146447 0.853553
vt 0.194682 0.805318
vt 0.140984 0.739887
vt 0.038060 0.691342
vt 0.101082 0.665237
vt 0.009607 0.597545
vt 0.076511 0.584237
vt 0.068215 0.500000
vt 0.009607 0.402455
vt 0.076511 0.415763
vt 0.038060 0.308658
vt 0.101082 0.334763
vt 0.084265 0.222215
vt 0.140984 0.260113
vt 0.146447 0.146447
vt 0.194682 0.194682
vt 0.260113 0.140984
vt 0.308658 0.038060
vt 0.334763 0.101082
vt 0.402455 0.009607
vt 0.415763 0.076511
vt 0.500000 0.068215
vt 0.597545 0.009607
vt 0.584237 0.076511
vt 0.691342 0.038060
vt 0.665237 0.101082
vt 0.777785 0.084265
vt 0.739887 0.140984
vt 0.853553 0.146447
vt 0.805318 0.194682
vt 0.915735 0.222215
vt 0.859016 0.260113
vt 0.961940 0.308658
vt 0.898918 0.334763
vt 0.990393 0.402455
vt 0.923489 0.415763
vt 0.931785 0.500000
vt 0.990393 0.597545
vt 0.923489 0.584237
vt 0.961940 0.691342
vt 0.898918 0.665237
vt 0.915735 0.777785
vt 0.859016 0.739887
vt 0.805318 0.805318
vt 0.777785 0.915735
vt 0.739887 0.859016
vt 0.691342 0.961940
vt 0.665237 0.898918
vt 0.597545 0.990393
vt 0.584237 0.923489
vt 0.428788 0.858008
vt 0.500000 0.865022
vt 0.360312 0.837237
vt 0.297204 0.803505
vt 0.241890 0.758110
vt 0.196495 0.702796
vt 0.162763 0.639688
vt 0.141992 0.571212
vt 0.134978 0.500000
vt 0.141992 0.428788
vt 0.162763 0.360312
vt 0.196495 0.297204
vt 0.241890 0.241890
vt 0.297204 0.196495
vt 0.360312 0.162763
vt 0.428788 0.141992
vt 0.500000 0.134978
vt 0.571212 0.141992
vt 0.639688 0.162764
vt 0.702796 0.196495
vt 0.758110 0.241890
vt 0.803505 0.297204
vt 0.837237 0.360312
vt 0.858008 0.428788
vt 0.865022 0.500000
vt 0.858009 0.571212
vt 0.837237 0.639688
vt 0.803505 0.702795
vt 0.758110 0.758110
vt 0.702796 0.803505
vt 0.639688 0.837237
vt 0.571212 0.858008
vt 0.000000 0.500000
vt 0.000000 0.500000
vt 0.858008 0.428788
vt 0.009607 0.597545
vt 0.837237 0.360312
vt 0.038060 0.691342
vt 0.803505 0.297204
vt 0.084265 0.777785
vt 0.084265 0.777785
vt 0.597545 0.990393
vt 0.758110 0.241890
vt 0.146447 0.853553
vt 0.691342 0.961940
vt 0.702796 0.196495
vt 0.222215 0.915735
vt 0.222215 0.915735
vt 0.777785 0.915735
vt 0.639688 0.162764
vt 0.308658 0.961940
vt 0.853553 0.853553
vt 0.853553 0.853553
vt 0.571212 0.141992
vt 0.402455 0.990393
vt 0.915735 0.777785
vt 0.500000 0.134978
vt 0.500000 1.000000
vt 0.961940 0.691342
vt 0.428788 0.141992
vt 0.990393 0.597545
vt 0.360312 0.162763
vt 1.000000 0.500000
vt 1.000000 0.500000
vt 0.297204 0.196495
vt 0.990393 0.402455
vt 0.241890 0.241890
vt 0.961940 0.308658
vt 0.196495 0.297204
vt 0.915735 0.222215
vt 0.162763 0.360312
vt 0.853553 0.146447
vt 0.141992 0.428788
vt 0.777785 0.084265
vt 0.134978 0.500000
vt 0.691342 0.038060
vt 0.141992 0.571212
vt 0.597545 0.009607
vt 0.162763 0.639688
vt 0.500000 0.865022
vt 0.500000 0.000000
vt 0.500000 0.000000
vt 0.196495 0.702796
vt 0.571212 0.858008
vt 0.402455 0.009607
vt 0.241890 0.758110
vt 0.639688 0.837237
vt 0.308658 0.038060
vt 0.297204 0.803505
vt 0.702796 0.803505
vt 0.222215 0.084265
vt 0.222215 0.084265
vt 0.360312 0.837237
vt 0.758110 0.758110
vt 0.146447 0.146447
vt 0.428788 0.858008
vt 0.803505 0.702795
vt 0.084265 0.222215
vt 0.837237 0.639688
vt 0.038060 0.308658
vt 0.858009 0.571212
vt 0.009607 0.402455
vt 0.865022 0.500000
vt 0.500000 0.931785
vt 0.584237 0.923489
vt 0.739887 0.859016
vt 0.665237 0.898918
vt 0.859016 0.739887
vt 0.805318 0.805318
vt 0.898918 0.665237
vt 0.923489 0.584237
vt 0.931785 0.500000
vt 0.923489 0.415763
vt 0.898918 0.334763
vt 0.859016 0.260113
vt 0.739887 0.140984
vt 0.805318 0.194682
vt 0.665237 0.101082
vt 0.584237 0.076511
vt 0.500000 0.068215
vt 0.415763 0.076511
vt 0.334763 0.101082
vt 0.194682 0.194682
vt 0.260113 0.140984
vt 0.101082 0.334763
vt 0.140984 0.260113
vt 0.076511 0.415763
vt 0.068215 0.500000
vt 0.101082 0.665237
vt 0.076511 0.584237
vt 0.194682 0.805318
vt 0.140984 0.739887
vt 0.334763 0.898918
vt 0.260113 0.859016
vt 0.415763 0.923489
vn 0.0000 -1.0000 0.0000
vn -0.9952 0.0000 0.0980
vn -0.9569 0.0000 -0.2903
vn -0.9952 0.0000 -0.0980
vn -0.8819 0.0000 -0.4714
vn -0.7730 0.0000 -0.6344
vn 0.0980 0.0000 -0.9952
vn -0.6344 0.0000 -0.7730
vn 0.2903 0.0000 -0.9569
vn -0.4714 0.0000 -0.8819
vn 0.4714 0.0000 -0.8819
vn -0.2903 0.0000 -0.9569
vn 0.6344 0.0000 -0.7730
vn -0.0980 0.0000 -0.9952
vn 0.7730 0.0000 -0.6344
vn 0.8819 0.0000 -0.4714
vn 0.9569 0.0000 -0.2903
vn 0.9952 0.0000 -0.0980
vn 0.9952 0.0000 0.0980
vn 0.9569 0.0000 0.2903
vn 0.8819 0.0000 0.4714
vn 0.7730 0.0000 0.6344
vn 0.6344 0.0000 0.7730
vn 0.4714 0.0000 0.8819
vn 0.2903 0.0000 0.9569
vn -0.0980 0.0000 0.9952
vn 0.0980 0.0000 0.9952
vn -0.2903 0.0000 0.9569
vn -0.4714 0.0000 0.8819
vn -0.6344 0.0000 0.7730
vn -0.7730 0.0000 0.6344
vn -0.8819 0.0000 0.4714
vn -0.9569 0.0000 0.2903
vn 0.0000 1.0000 0.0000
usemtl None
s off
f 2/1/1 1/2/1 34/3/1
f 2/1/1 34/3/1 33/4/1
f 3/5/1 33/4/1 35/6/1
f 36/7/1 3/5/1 35/6/1
f 5/8/1 36/7/1 37/9/1
f 38/10/1 5/8/1 37/9/1
f 7/11/1 38/10/1 39/12/1
f 8/13/1 39/12/1 40/14/1
f 41/15/1 8/13/1 40/14/1
f 10/16/1 41/15/1 42/17/1
f 11/18/1 42/17/1 43/19/1
f 12/20/1 43/19/1 44/21/1
f 13/22/1 44/21/1 45/23/1
f 46/24/1 13/22/1 45/23/1
f 15/25/1 46/24/1 47/26/1
f 16/27/1 47/26/1 48/28/1
f 49/29/1 16/27/1 48/28/1
f 18/30/1 49/29/1 50/31/1
f 19/32/1 50/31/1 51/33/1
f 20/34/1 51/33/1 52/35/1
f 21/36/1 52/35/1 53/37/1
f 22/38/1 53/37/1 54/39/1
f 23/40/1 54/39/1 55/41/1
f 24/42/1 55/41/1 56/43/1
f 57/44/1 24/42/1 56/43/1
f 26/45/1 57/44/1 58/46/1
f 27/47/1 58/46/1 59/48/1
f 28/49/1 59/48/1 60/50/1
f 61/51/1 28/49/1 60/50/1
f 30/52/1 61/51/1 62/53/1
f 31/54/1 62/53/1 63/55/1
f 32/56/1 63/55/1 64/57/1
f 34/3/1 32/56/1 64/57/1
f 65/58/1 34/3/1 66/59/1
f 35/6/1 65/58/1 67/60/1
f 68/61/1 35/6/1 67/60/1
f 37/9/1 68/61/1 69/62/1
f 70/63/1 37/9/1 69/62/1
f 39/12/1 70/63/1 71/64/1
f 72/65/1 39/12/1 71/64/1
f 41/15/1 72/65/1 73/66/1
f 42/17/1 73/66/1 74/67/1
f 43/19/1 74/67/1 75/68/1
f 76/69/1 43/19/1 75/68/1
f 45/23/1 76/69/1 77/70/1
f 78/71/1 45/23/1 77/70/1
f 47/26/1 78/71/1 79/72/1
f 80/73/1 47/26/1 79/72/1
f 49/29/1 80/73/1 81/74/1
f 50/31/1 81/74/1 82/75/1
f 51/33/1 82/75/1 83/76/1
f 84/77/1 51/33/1 83/76/1
f 85/78/1 52/35/1 84/77/1
f 54/39/1 85/78/1 86/79/1
f 55/41/1 86/79/1 87/80/1
f 56/43/1 87/80/1 88/81/1
f 57/44/1 88/81/1 89/82/1
f 90/83/1 57/44/1 89/82/1
f 59/48/1 90/83/1 91/84/1
f 60/50/1 91/84/1 92/85/1
f 61/51/1 92/85/1 93/86/1
f 62/53/1 93/86/1 94/87/1
f 63/55/1 94/87/1 95/88/1
f 64/57/1 95/88/1 96/89/1
f 34/3/1 96/89/1 66/59/1
f 10/16/2 152/90/2 9/91/2
f 87/80/3 105/92/3 88/81/3
f 9/91/4 153/93/4 8/13/4
f 86/79/5 106/94/5 87/80/5
f 8/13/3 154/95/3 7/11/3
f 85/78/6 107/96/6 86/79/6
f 7/11/5 155/97/5 6/98/5
f 1/2/7 129/99/7 32/56/7
f 84/77/8 108/100/8 85/78/8
f 6/98/6 156/101/6 5/8/6
f 32/56/9 130/102/9 31/54/9
f 83/76/10 109/103/10 84/77/10
f 5/8/8 157/104/8 4/105/8
f 31/54/11 131/106/11 30/52/11
f 82/75/12 110/107/12 83/76/12
f 4/105/10 158/108/10 3/5/10
f 30/52/13 132/109/13 29/110/13
f 81/74/14 111/111/14 82/75/14
f 3/5/12 160/112/12 2/1/12
f 29/110/15 133/113/15 28/49/15
f 80/73/7 112/114/7 81/74/7
f 2/1/14 159/115/14 1/2/14
f 28/49/16 134/116/16 27/47/16
f 79/72/9 113/117/9 80/73/9
f 27/47/17 135/118/17 26/45/17
f 78/71/11 114/119/11 79/72/11
f 26/45/18 136/120/18 25/121/18
f 77/70/13 115/122/13 78/71/13
f 25/121/19 137/123/19 24/42/19
f 76/69/15 116/124/15 77/70/15
f 24/42/20 138/125/20 23/40/20
f 75/68/16 117/126/16 76/69/16
f 23/40/21 139/127/21 22/38/21
f 74/67/17 118/128/17 75/68/17
f 22/38/22 140/129/22 21/36/22
f 73/66/18 119/130/18 74/67/18
f 21/36/23 141/131/23 20/34/23
f 72/65/19 120/132/19 73/66/19
f 20/34/24 142/133/24 19/32/24
f 71/64/20 121/134/20 72/65/20
f 19/32/25 143/135/25 18/30/25
f 70/63/21 122/136/21 71/64/21
f 96/89/26 127/137/26 66/59/26
f 18/30/27 144/138/27 17/139/27
f 69/62/22 123/140/22 70/63/22
f 95/88/28 97/141/28 96/89/28
f 17/139/26 145/142/26 16/27/26
f 68/61/23 124/143/23 69/62/23
f 94/87/29 98/144/29 95/88/29
f 16/27/28 146/145/28 15/25/28
f 67/60/24 125/146/24 68/61/24
f 93/86/30 99/147/30 94/87/30
f 15/25/29 147/148/29 14/149/29
f 65/58/25 126/150/25 67/60/25
f 92/85/31 100/151/31 93/86/31
f 14/149/30 148/152/30 13/22/30
f 66/59/27 128/153/27 65/58/27
f 91/84/32 101/154/32 92/85/32
f 13/22/31 149/155/31 12/20/31
f 90/83/33 102/156/33 91/84/33
f 12/20/32 150/157/32 11/18/32
f 89/82/2 103/158/2 90/83/2
f 11/18/33 151/159/33 10/16/33
f 88/81/4 104/160/4 89/82/4
f 97/141/34 191/161/34 127/137/34
f 98/144/34 161/162/34 97/141/34
f 98/144/34 163/163/34 162/164/34
f 100/151/34 163/163/34 99/147/34
f 100/151/34 165/165/34 164/166/34
f 102/156/34 165/165/34 101/154/34
f 103/158/34 166/167/34 102/156/34
f 104/160/34 167/168/34 103/158/34
f 105/92/34 168/169/34 104/160/34
f 106/94/34 169/170/34 105/92/34
f 107/96/34 170/171/34 106/94/34
f 108/100/34 171/172/34 107/96/34
f 108/100/34 173/173/34 172/174/34
f 110/107/34 173/173/34 109/103/34
f 111/111/34 174/175/34 110/107/34
f 112/114/34 175/176/34 111/111/34
f 113/117/34 176/177/34 112/114/34
f 114/119/34 177/178/34 113/117/34
f 115/122/34 178/179/34 114/119/34
f 115/122/34 180/180/34 179/181/34
f 117/126/34 180/180/34 116/124/34
f 117/126/34 182/182/34 181/183/34
f 118/128/34 183/184/34 182/182/34
f 120/132/34 183/184/34 119/130/34
f 121/134/34 184/185/34 120/132/34
f 121/134/34 186/186/34 185/187/34
f 123/140/34 186/186/34 122/136/34
f 123/140/34 188/188/34 187/189/34
f 125/146/34 188/188/34 124/143/34
f 125/146/34 190/190/34 189/191/34
f 128/153/34 190/190/34 126/150/34
f 128/153/34 191/161/34 192/192/34
f 161/162/34 159/115/34 191/161/34
f 162/164/34 129/99/34 161/162/34
f 162/164/34 131/106/34 130/102/34
f 164/166/34 131/106/34 163/163/34
f 164/166/34 133/113/34 132/109/34
f 166/167/34 133/113/34 165/165/34
f 167/168/34 134/116/34 166/167/34
f 168/169/34 135/118/34 167/168/34
f 169/170/34 136/120/34 168/169/34
f 170/171/34 137/123/34 169/170/34
f 171/172/34 138/125/34 170/171/34
f 171/172/34 140/129/34 139/127/34
f 172/174/34 141/131/34 140/129/34
f 174/175/34 141/131/34 173/173/34
f 175/176/34 142/133/34 174/175/34
f 176/177/34 143/135/34 175/176/34
f 177/178/34 144/138/34 176/177/34
f 177/178/34 146/145/34 145/142/34
f 179/181/34 146/145/34 178/179/34
f 179/181/34 148/152/34 147/148/34
f 181/183/34 148/152/34 180/180/34
f 181/183/34 150/157/34 149/155/34
f 183/184/34 150/157/34 182/182/34
f 184/185/34 151/159/34 183/184/34
f 185/187/34 152/90/34 184/185/34
f 185/187/34 154/95/34 153/93/34
f 187/189/34 154/95/34 186/186/34
f 187/189/34 156/101/34 155/97/34
f 189/191/34 156/101/34 188/188/34
f 189/191/34 158/108/34 157/104/34
f 192/192/34 158/108/34 190/190/34
f 191/161/34 160/112/34 192/192/34
f 3/5/1 2/1/1 33/4/1
f 36/7/1 4/105/1 3/5/1
f 5/8/1 4/105/1 36/7/1
f 38/10/1 6/98/1 5/8/1
f 7/11/1 6/98/1 38/10/1
f 8/13/1 7/11/1 39/12/1
f 41/15/1 9/91/1 8/13/1
f 10/16/1 9/91/1 41/15/1
f 11/18/1 10/16/1 42/17/1
f 12/20/1 11/18/1 43/19/1
f 13/22/1 12/20/1 44/21/1
f 46/24/1 14/149/1 13/22/1
f 15/25/1 14/149/1 46/24/1
f 16/27/1 15/25/1 47/26/1
f 49/29/1 17/139/1 16/27/1
f 18/30/1 17/139/1 49/29/1
f 19/32/1 18/30/1 50/31/1
f 20/34/1 19/32/1 51/33/1
f 21/36/1 20/34/1 52/35/1
f 22/38/1 21/36/1 53/37/1
f 23/40/1 22/38/1 54/39/1
f 24/42/1 23/40/1 55/41/1
f 57/44/1 25/121/1 24/42/1
f 26/45/1 25/121/1 57/44/1
f 27/47/1 26/45/1 58/46/1
f 28/49/1 27/47/1 59/48/1
f 61/51/1 29/110/1 28/49/1
f 30/52/1 29/110/1 61/51/1
f 31/54/1 30/52/1 62/53/1
f 32/56/1 31/54/1 63/55/1
f 34/3/1 1/2/1 32/56/1
f 65/58/1 33/4/1 34/3/1
f 35/6/1 33/4/1 65/58/1
f 68/61/1 36/7/1 35/6/1
f 37/9/1 36/7/1 68/61/1
f 70/63/1 38/10/1 37/9/1
f 39/12/1 38/10/1 70/63/1
f 72/65/1 40/14/1 39/12/1
f 41/15/1 40/14/1 72/65/1
f 42/17/1 41/15/1 73/66/1
f 43/19/1 42/17/1 74/67/1
f 76/69/1 44/21/1 43/19/1
f 45/23/1 44/21/1 76/69/1
f 78/71/1 46/24/1 45/23/1
f 47/26/1 46/24/1 78/71/1
f 80/73/1 48/28/1 47/26/1
f 49/29/1 48/28/1 80/73/1
f 50/31/1 49/29/1 81/74/1
f 51/33/1 50/31/1 82/75/1
f 84/77/1 52/35/1 51/33/1
f 85/78/1 53/37/1 52/35/1
f 54/39/1 53/37/1 85/78/1
f 55/41/1 54/39/1 86/79/1
f 56/43/1 55/41/1 87/80/1
f 57/44/1 56/43/1 88/81/1
f 90/83/1 58/46/1 57/44/1
f 59/48/1 58/46/1 90/83/1
f 60/50/1 59/48/1 91/84/1
f 61/51/1 60/50/1 92/85/1
f 62/53/1 61/51/1 93/86/1
f 63/55/1 62/53/1 94/87/1
f 64/57/1 63/55/1 95/88/1
f 34/3/1 64/57/1 96/89/1
f 10/16/2 151/159/2 152/90/2
f 87/80/3 106/94/3 105/92/3
f 9/91/4 152/90/4 153/93/4
f 86/79/5 107/96/5 106/94/5
f 8/13/3 153/93/3 154/95/3
f 85/78/6 108/100/6 107/96/6
f 7/11/5 154/95/5 155/97/5
f 1/2/7 159/115/7 129/99/7
f 84/77/8 109/103/8 108/100/8
f 6/98/6 155/97/6 156/101/6
f 32/56/9 129/99/9 130/102/9
f 83/76/10 110/107/10 109/103/10
f 5/8/8 156/101/8 157/104/8
f 31/54/11 130/102/11 131/106/11
f 82/75/12 111/111/12 110/107/12
f 4/105/10 157/104/10 158/108/10
f 30/52/13 131/106/13 132/109/13
f 81/74/14 112/114/14 111/111/14
f 3/5/12 158/108/12 160/112/12
f 29/110/15 132/109/15 133/113/15
f 80/73/7 113/117/7 112/114/7
f 2/1/14 160/112/14 159/115/14
f 28/49/16 133/113/16 134/116/16
f 79/72/9 114/119/9 113/117/9
f 27/47/17 134/116/17 135/118/17
f 78/71/11 115/122/11 114/119/11
f 26/45/18 135/118/18 136/120/18
f 77/70/13 116/124/13 115/122/13
f 25/121/19 136/120/19 137/123/19
f 76/69/15 117/126/15 116/124/15
f 24/42/20 137/123/20 138/125/20
f 75/68/16 118/128/16 117/126/16
f 23/40/21 138/125/21 139/127/21
f 74/67/17 119/130/17 118/128/17
f 22/38/22 139/127/22 140/129/22
f 73/66/18 120/132/18 119/130/18
f 21/36/23 140/129/23 141/131/23
f 72/65/19 121/134/19 120/132/19
f 20/34/24 141/131/24 142/133/24
f 71/64/20 122/136/20 121/134/20
f 19/32/25 142/133/25 143/135/25
f 70/63/21 123/140/21 122/136/21
f 96/89/26 97/141/26 127/137/26
f 18/30/27 143/135/27 144/138/27
f 69/62/22 124/143/22 123/140/22
f 95/88/28 98/144/28 97/141/28
f 17/139/26 144/138/26 145/142/26
f 68/61/23 125/146/23 124/143/23
f 94/87/29 99/147/29 98/144/29
f 16/27/28 145/142/28 146/145/28
f 67/60/24 126/150/24 125/146/24
f 93/86/30 100/151/30 99/147/30
f 15/25/29 146/145/29 147/148/29
f 65/58/25 128/153/25 126/150/25
f 92/85/31 101/154/31 100/151/31
f 14/149/30 147/148/30 148/152/30
f 66/59/27 127/137/27 128/153/27
f 91/84/32 102/156/32 101/154/32
f 13/22/31 148/152/31 149/155/31
f 90/83/33 103/158/33 102/156/33
f 12/20/32 149/155/32 150/157/32
f 89/82/2 104/160/2 103/158/2
f 11/18/33 150/157/33 151/159/33
f 88/81/4 105/92/4 104/160/4
f 97/141/34 161/162/34 191/161/34
f 98/144/34 162/164/34 161/162/34
f 98/144/34 99/147/34 163/163/34
f 100/151/34 164/166/34 163/163/34
f 100/151/34 101/154/34 165/165/34
f 102/156/34 166/167/34 165/165/34
f 103/158/34 167/168/34 166/167/34
f 104/160/34 168/169/34 167/168/34
f 105/92/34 169/170/34 168/169/34
f 106/94/34 170/171/34 169/170/34
f 107/96/34 171/172/34 170/171/34
f 108/100/34 172/174/34 171/172/34
f 108/100/34 109/103/34 173/173/34
f 110/107/34 174/175/34 173/173/34
f 111/111/34 175/176/34 174/175/34
f 112/114/34 176/177/34 175/176/34
f 113/117/34 177/178/34 176/177/34
f 114/119/34 178/179/34 177/178/34
f 115/122/34 179/181/34 178/179/34
f 115/122/34 116/124/34 180/180/34
f 117/126/34 181/183/34 180/180/34
f 117/126/34 118/128/34 182/182/34
f 118/128/34 119/130/34 183/184/34
f 120/132/34 184/185/34 183/184/34
f 121/134/34 185/187/34 184/185/34
f 121/134/34 122/136/34 186/186/34
f 123/140/34 187/189/34 186/186/34
f 123/140/34 124/143/34 188/188/34
f 125/146/34 189/191/34 188/188/34
f 125/146/34 126/150/34 190/190/34
f 128/153/34 192/192/34 190/190/34
f 128/153/34 127/137/34 191/161/34
f 161/162/34 129/99/34 159/115/34
f 162/164/34 130/102/34 129/99/34
f 162/164/34 163/163/34 131/106/34
f 164/166/34 132/109/34 131/106/34
f 164/166/34 165/165/34 133/113/34
f 166/167/34 134/116/34 133/113/34
f 167/168/34 135/118/34 134/116/34
f 168/169/34 136/120/34 135/118/34
f 169/170/34 137/123/34 136/120/34
f 170/171/34 138/125/34 137/123/34
f 171/172/34 139/127/34 138/125/34
f 171/172/34 172/174/34 140/129/34
f 172/174/34 173/173/34 141/131/34
f 174/175/34 142/133/34 141/131/34
f 175/176/34 143/135/34 142/133/34
f 176/177/34 144/138/34 143/135/34
f 177/178/34 145/142/34 144/138/34
f 177/178/34 178/179/34 146/145/34
f 179/181/34 147/148/34 146/145/34
f 179/181/34 180/180/34 148/152/34
f 181/183/34 149/155/34 148/152/34
f 181/183/34 182/182/34 150/157/34
f 183/184/34 151/159/34 150/157/34
f 184/185/34 152/90/34 151/159/34
f 185/187/34 153/93/34 152/90/34
f 185/187/34 186/186/34 154/95/34
f 187/189/34 155/97/34 154/95/34
f 187/189/34 188/188/34 156/101/34
f 189/191/34 157/104/34 156/101/34
f 189/191/34 190/190/34 158/108/34
f 192/192/34 160/112/34 158/108/34
f 191/161/34 159/115/34 160/112/34
